<?xml version="1.0" encoding="UTF-8" standalone="no" ?>
<!DOCTYPE svg PUBLIC "-//W3C//DTD SVG 1.1//EN" "http://www.w3.org/Graphics/SVG/1.1/DTD/svg11.dtd">
<svg xmlns="http://www.w3.org/2000/svg" xmlns:xlink="http://www.w3.org/1999/xlink" version="1.1" width="1080" height="1080" viewBox="0 0 1080 1080" xml:space="preserve">
<desc>Created with Fabric.js 5.2.4</desc>
<defs>
</defs>
<rect x="0" y="0" width="100%" height="100%" fill="transparent"></rect>
<g transform="matrix(1 0 0 1 540 540)" id="f07a1543-36de-46f0-a141-b5c741c7eae9"  >
<rect style="stroke: none; stroke-width: 1; stroke-dasharray: none; stroke-linecap: butt; stroke-dashoffset: 0; stroke-linejoin: miter; stroke-miterlimit: 4; fill: rgb(255,255,255); fill-rule: nonzero; opacity: 1; visibility: hidden;" vector-effect="non-scaling-stroke"  x="-540" y="-540" rx="0" ry="0" width="1080" height="1080" />
</g>
<g transform="matrix(1 0 0 1 540 540)" id="b8930611-c742-47af-8e74-fb408a992613"  >
</g>
<g transform="matrix(1 0 0 1 540 540)"  >
<rect style="stroke: none; stroke-width: 1; stroke-dasharray: none; stroke-linecap: butt; stroke-dashoffset: 0; stroke-linejoin: miter; stroke-miterlimit: 4; fill: rgb(255,255,255); fill-rule: nonzero; opacity: 1; visibility: hidden;" vector-effect="non-scaling-stroke"  x="-540" y="-540" rx="0" ry="0" width="1080" height="1080" />
</g>
<g transform="matrix(42.02 0 0 42.02 540 540)"  >
<path style="stroke: rgb(0,0,0); stroke-width: 0; stroke-dasharray: none; stroke-linecap: butt; stroke-dashoffset: 0; stroke-linejoin: miter; stroke-miterlimit: 4; fill: rgb(255,255,255); fill-rule: nonzero; opacity: 1;" vector-effect="non-scaling-stroke"  transform=" translate(-12, -12)" d="M 24 12.073 C 24 18.062 19.606 23.027 13.87 23.928 L 13.87 15.565000000000001 L 16.659 15.565000000000001 L 17.189999999999998 12.105 L 13.87 12.105 L 13.87 9.86 C 13.87 8.913 14.334 7.991 15.819999999999999 7.991 L 17.328999999999997 7.991 L 17.328999999999997 5.045 C 17.328999999999997 5.045 15.958999999999996 4.811 14.649999999999997 4.811 C 11.915999999999997 4.811 10.129999999999997 6.468 10.129999999999997 9.466999999999999 L 10.129999999999997 12.104 L 7.091 12.104 L 7.091 15.564 L 10.13 15.564 L 10.13 23.927 C 4.395 23.025 0 18.061 0 12.073 C 0 5.446000000000001 5.373 0.0730000000000004 12 0.0730000000000004 C 18.627 0.0730000000000004 24 5.445 24 12.073 z" stroke-linecap="round" />
</g>
</svg>