<?xml version="1.0" encoding="UTF-8" standalone="no" ?>
<!DOCTYPE svg PUBLIC "-//W3C//DTD SVG 1.1//EN" "http://www.w3.org/Graphics/SVG/1.1/DTD/svg11.dtd">
<svg xmlns="http://www.w3.org/2000/svg" xmlns:xlink="http://www.w3.org/1999/xlink" version="1.1" width="1080" height="1080" viewBox="0 0 1080 1080" xml:space="preserve">
<desc>Created with Fabric.js 5.2.4</desc>
<defs>
</defs>
<g transform="matrix(1 0 0 1 540 540)" id="7f5ad8c6-190c-4709-8900-392e519f8cab"  >
<rect style="stroke: none; stroke-width: 1; stroke-dasharray: none; stroke-linecap: butt; stroke-dashoffset: 0; stroke-linejoin: miter; stroke-miterlimit: 4; fill: rgb(255,255,255); fill-rule: nonzero; opacity: 1; visibility: hidden;" vector-effect="non-scaling-stroke"  x="-540" y="-540" rx="0" ry="0" width="1080" height="1080" />
</g>
<g transform="matrix(1 0 0 1 540 540)" id="a10660ca-c99b-4a9a-9e7c-d9ddcc7c586e"  >
</g>
<g transform="matrix(1.81 0 0 1.81 540 540)"  >
<g style="" vector-effect="non-scaling-stroke"   >
		<g transform="matrix(1 0 0 1 -490 -490)"  >
<rect style="stroke: none; stroke-width: 1; stroke-dasharray: none; stroke-linecap: butt; stroke-dashoffset: 0; stroke-linejoin: miter; stroke-miterlimit: 4; fill: rgb(255,255,255); fill-opacity: 0; fill-rule: nonzero; opacity: 1;" vector-effect="non-scaling-stroke"  x="-50" y="-50" rx="0" ry="0" width="100" height="100" />
</g>
		<g transform="matrix(1 0 0 1 0 0)"  >
<rect style="stroke: none; stroke-width: 1; stroke-dasharray: none; stroke-linecap: butt; stroke-dashoffset: 0; stroke-linejoin: miter; stroke-miterlimit: 4; fill: rgb(255,255,255); fill-rule: nonzero; opacity: 1; visibility: hidden;" vector-effect="non-scaling-stroke"  x="-540" y="-540" rx="0" ry="0" width="1080" height="1080" />
</g>
		<g transform="matrix(21.33 0 0 21.33 0 0)"  >
<path style="stroke: none; stroke-width: 1; stroke-dasharray: none; stroke-linecap: butt; stroke-dashoffset: 0; stroke-linejoin: miter; stroke-miterlimit: 4; fill: rgb(255,255,255); fill-rule: nonzero; opacity: 1;" vector-effect="non-scaling-stroke"  transform=" translate(-12, -12)" d="M 12 2.162 C 15.204 2.162 15.584 2.174 16.849 2.2319999999999998 C 18.157 2.292 19.504 2.59 20.457 3.5429999999999997 C 21.419 4.505 21.708000000000002 5.8389999999999995 21.768 7.151 C 21.826 8.416 21.838 8.796 21.838 12 C 21.838 15.204 21.826 15.584 21.768 16.849 C 21.709 18.15 21.404 19.51 20.457 20.457 C 19.495 21.419 18.162 21.708000000000002 16.849 21.768 C 15.584 21.826 15.204 21.838 12 21.838 C 8.796 21.838 8.416 21.826 7.151 21.768 C 5.859999999999999 21.709 4.481999999999999 21.397000000000002 3.5429999999999997 20.457 C 2.586 19.5 2.292 18.153000000000002 2.2319999999999998 16.849 C 2.174 15.584 2.162 15.204 2.162 12 C 2.162 8.796 2.174 8.416 2.2319999999999998 7.151 C 2.291 5.8549999999999995 2.5989999999999998 4.487 3.5429999999999997 3.5429999999999997 C 4.503 2.5829999999999997 5.842 2.292 7.151 2.2319999999999998 C 8.416 2.174 8.796 2.162 12 2.162 M 12 0 C 8.741 0 8.332 0.014 7.052 0.072 C 5.197 0.157 3.355 0.673 2.014 2.014 C 0.668 3.36 0.157 5.198 0.072 7.052 C 0.014 8.332 0 8.741 0 12 C 0 15.259 0.014 15.668 0.072 16.948 C 0.157 18.801000000000002 0.6749999999999999 20.648 2.014 21.986 C 3.359 23.331 5.199999999999999 23.843 7.052 23.928 C 8.332 23.986 8.741 24 12 24 C 15.259 24 15.668 23.986 16.948 23.928 C 18.802 23.843 20.646 23.326 21.986 21.986 C 23.333000000000002 20.639 23.843 18.802 23.928 16.948 C 23.986 15.668 24 15.259 24 12 C 24 8.741 23.986 8.332 23.928 7.052 C 23.843 5.196999999999999 23.326 3.3539999999999996 21.986 2.0139999999999993 C 20.643 0.6709999999999994 18.797 0.15599999999999925 16.948 0.0719999999999994 C 15.668 0.014 15.259 0 12 0 z" stroke-linecap="round" />
</g>
		<g transform="matrix(21.33 0 0 21.33 0 0)"  >
<path style="stroke: none; stroke-width: 1; stroke-dasharray: none; stroke-linecap: butt; stroke-dashoffset: 0; stroke-linejoin: miter; stroke-miterlimit: 4; fill: rgb(255,255,255); fill-rule: nonzero; opacity: 1;" vector-effect="non-scaling-stroke"  transform=" translate(-12, -12)" d="M 12 5.838 C 8.597 5.838 5.838 8.597 5.838 12 C 5.838 15.403 8.597 18.162 12 18.162 C 15.403 18.162 18.162 15.402999999999999 18.162 12 C 18.162 8.597 15.403 5.838 12 5.838 z M 12 16 C 9.791 16 8 14.209 8 12 C 8 9.791 9.791 8 12 8 C 14.209 8 16 9.791 16 12 C 16 14.209 14.209 16 12 16 z" stroke-linecap="round" />
</g>
		<g transform="matrix(21.33 0 0 21.33 136.66 -136.66)"  >
<circle style="stroke: none; stroke-width: 1; stroke-dasharray: none; stroke-linecap: butt; stroke-dashoffset: 0; stroke-linejoin: miter; stroke-miterlimit: 4; fill: rgb(255,255,255); fill-rule: nonzero; opacity: 1;" vector-effect="non-scaling-stroke"  cx="0" cy="0" r="1.44" />
</g>
</g>
</g>
</svg>