<svg width="960" height="960" xmlns="http://www.w3.org/2000/svg">

 <g>
  <title>Layer 1</title>
  <path id="svg_1" d="m354,-247l126,-76l126,77l-33,-144l111,-96l-146,-13l-58,-136l-58,135l-146,13l111,97l-33,143zm126,18l-166,100q-11,7 -23,6t-21,-8q-9,-7 -14,-17.5t-2,-23.5l44,-189l-147,-127q-10,-9 -12.5,-20.5t1.5,-22.5q4,-11 12,-18t22,-9l194,-17l75,-178q5,-12 15.5,-18t21.5,-6q11,0 21.5,6t15.5,18l75,178l194,17q14,2 22,9t12,18q4,11 1.5,22.5t-12.5,20.5l-147,127l44,189q3,13 -2,23.5t-14,17.5q-9,7 -21,8t-23,-6l-166,-100zm0,-201z"/>
  <path stroke-width="0" fill="#f2d365" d="m352.99998,682.9375l126,-76l126,77l-33,-144l111,-96l-146,-13l-58,-136l-58,135l-146,13l111,97l-33,143zm126,18l-166,100q-11,7 -23,6t-21,-8q-9,-7 -14,-17.5t-2,-23.5l44,-189l-147,-127q-10,-9 -12.5,-20.5t1.5,-22.5q4,-11 12,-18t22,-9l194,-17l75,-178q5,-12 15.5,-18t21.5,-6q11,0 21.5,6t15.5,18l75,178l194,17q14,2 22,9t12,18q4,11 1.5,22.5t-12.5,20.5l-147,127l44,189q3,13 -2,23.5t-14,17.5q-9,7 -21,8t-23,-6l-166,-100zm0,-201z"/>
  <path d="m346,471c0,0 1,-1 3,-2l2,-1l1,0l2,0" id="svg_4" fill="#f2d365"/>
  <path d="m255,417c0,1 1,3 1,4l0,1" id="svg_5" fill="#f2d365"/>
 </g>
</svg>