<svg width="960" height="960" xmlns="http://www.w3.org/2000/svg">

 <g>
  <title>Layer 1</title>
  <path id="svg_1" d="m354,-247l126,-76l126,77l-33,-144l111,-96l-146,-13l-58,-136l-58,135l-146,13l111,97l-33,143zm126,18l-166,100q-11,7 -23,6t-21,-8q-9,-7 -14,-17.5t-2,-23.5l44,-189l-147,-127q-10,-9 -12.5,-20.5t1.5,-22.5q4,-11 12,-18t22,-9l194,-17l75,-178q5,-12 15.5,-18t21.5,-6q11,0 21.5,6t15.5,18l75,178l194,17q14,2 22,9t12,18q4,11 1.5,22.5t-12.5,20.5l-147,127l44,189q3,13 -2,23.5t-14,17.5q-9,7 -21,8t-23,-6l-166,-100zm0,-201z"/>
  <g id="svg_10">
   <path stroke-width="0" fill="#f2d365" d="m352.99998,682.9375l126,-76l126,77l-33,-144l111,-96l-146,-13l-58,-136l-58,135l-146,13l111,97l-33,143zm126,18l-166,100q-11,7 -23,6t-21,-8q-9,-7 -14,-17.5t-2,-23.5l44,-189l-147,-127q-10,-9 -12.5,-20.5t1.5,-22.5q4,-11 12,-18t22,-9l194,-17l75,-178q5,-12 15.5,-18t21.5,-6q11,0 21.5,6t15.5,18l75,178l194,17q14,2 22,9t12,18q4,11 1.5,22.5t-12.5,20.5l-147,127l44,189q3,13 -2,23.5t-14,17.5q-9,7 -21,8t-23,-6l-166,-100zm0,-201z"/>
   <path d="m257,414c0,1 -0.29453,2.34619 2,4c3.62799,2.6149 9,4 16,7c14,6 30.42233,16.53979 37,23c8.59103,8.43765 13.52313,16.68246 17,23c4.74869,8.62845 6.79395,14.08743 9,19c1.83203,4.07965 4.49622,9.90778 5,14c0.48874,3.97003 0,7 0,9l0,1l0,2l0,1" id="svg_3" fill="#f2d365"/>
   <path d="m346,471c0,0 1,-1 3,-2l2,-1l1,0l2,0" id="svg_4" fill="#f2d365"/>
   <path d="m255,417c0,1 1,3 1,4l0,1" id="svg_5" fill="#f2d365"/>
   <path id="svg_8" d="m222,434c2,2 112,117 112,117c0,0 -29,181 -29,182c0,1 189,-71 189,-71c0,0 140,71 140,71c0,0 -16,-167 -16,-167c0,0 116,-146 116,-146c0,0 -189,-26 -189,-26c0,0 -65,-118 -65,-118c0,0 -121,152 -121,152c0,0 -139,4 -137,6z" opacity="NaN" fill="#f2d365"/>
  </g>
 </g>
</svg>